<?xml version="1.0" encoding="UTF-8"?>
<svg width="86px" height="18px" viewBox="0 0 86 18" version="1.1" xmlns="http://www.w3.org/2000/svg" xmlns:xlink="http://www.w3.org/1999/xlink">
    <title>mark / company / factor5</title>
    <g id="Symbols" stroke="none" stroke-width="1" fill="none" fillRule="evenodd">
        <g id="global-/-header-area-/-mobile" transform="translate(-15.000000, -23.000000)" fill="#FFFFFE">
            <g id="Group" transform="translate(15.000000, 17.000000)">
                <g id="Group" transform="translate(0.000000, 6.136364)">
                    <polyline id="Fill-1" points="24.4205076 0.145294367 24.4205076 8.68910179 30.2341991 8.68910179 30.9423268 6.99271639 26.3175395 6.99271639 26.3175395 0.145294367 24.4205076 0.145294367"></polyline>
                    <path d="M35.2510182,0.145294367 L36.9986938,0.145294367 L40.6944065,8.68910179 L38.7132044,8.68910179 L37.9241087,6.77443484 L34.2780289,6.77443484 L33.4909917,8.68910179 L31.5566778,8.68910179 L35.2510182,0.145294367 Z M37.2470874,5.1134097 L36.1000395,2.34216332 L34.9564225,5.1134097 L37.2470874,5.1134097 L37.2470874,5.1134097 Z" id="Fill-2"></path>
                    <polyline id="Fill-3" points="46.1208693 1.87840002 43.4132417 1.87840002 43.4132417 0.145294367 50.7243853 0.145294367 50.7243853 1.87840002 48.0169863 1.87840002 48.0169863 8.68910179 46.1208693 8.68910179 46.1208693 1.87840002"></polyline>
                    <path d="M52.2508853,0.145294367 L56.1927044,0.145294367 C57.2850874,0.145294367 58.1215289,0.435203095 58.7047736,1.01298054 C59.1967576,1.50213068 59.4444651,2.15198864 59.4444651,2.96436775 L59.4444651,2.99088794 C59.4444651,3.68131951 59.2731512,4.24595019 58.9325821,4.68001995 C58.5913268,5.11726306 58.1460023,5.43573199 57.5966087,5.63837343 L59.7026938,8.68910179 L57.4849917,8.68910179 L55.6391938,5.95661569 L54.1465448,5.95661569 L54.1465448,8.68910179 L52.2508853,8.68910179 L52.2508853,0.145294367 Z M56.0685076,4.29649722 C56.5385342,4.29649722 56.8969438,4.1865631 57.146481,3.96760155 C57.3973906,3.74705331 57.5220448,3.45442456 57.5220448,3.08744862 L57.5220448,3.06387512 C57.5220448,2.65609889 57.3907576,2.35145672 57.1258959,2.14813528 C56.8662948,1.94549383 56.5001087,1.84371978 56.0321406,1.84371978 L54.1465448,1.84371978 L54.1465448,4.29649722 L56.0685076,4.29649722 L56.0685076,4.29649722 Z" id="Fill-4"></path>
                    <path d="M65.0905023,8.83666284 C64.4260608,8.83666284 63.8133108,8.72083535 63.2538534,8.48782036 C62.6964544,8.25707205 62.213848,7.94336315 61.8076353,7.54805368 C61.4002789,7.15546422 61.0841831,6.69102091 60.8598055,6.15744379 C60.633598,5.62477333 60.5206087,5.05379594 60.5206087,4.44473827 L60.5206087,4.41708474 C60.5206087,3.80780041 60.6349704,3.23568968 60.8652948,2.70347256 C61.0967629,2.17057544 61.4146885,1.70295878 61.8209012,1.29994258 C62.227114,0.897153046 62.7110927,0.579590788 63.2726087,0.347935808 C63.8359544,0.11582749 64.4500768,0 65.1158906,0 C65.7801034,0 66.3921672,0.11582749 66.9481938,0.347935808 C67.5078799,0.579590788 67.9909438,0.893979691 68.3971565,1.28656915 C68.8029119,1.68119862 69.1199225,2.14700193 69.3456725,2.67785904 C69.5714225,3.2112095 69.6841831,3.78354691 69.6841831,4.39464458 L69.6841831,4.41708474 C69.6841831,5.03022244 69.5686778,5.60097316 69.3385821,6.13115027 C69.1089438,6.66586074 68.7907895,7.13506407 68.3841193,7.53808027 C67.978364,7.93996313 67.4932417,8.25707205 66.9317257,8.48782036 C66.3688374,8.72083535 65.7567736,8.83666284 65.0905023,8.83666284 M65.1158906,7.10265051 C65.4932842,7.10265051 65.8407151,7.03351668 66.1611565,6.8954757 C66.4829704,6.75811472 66.7544651,6.56794004 66.9815874,6.32268496 C67.2064225,6.07720322 67.3825395,5.79386787 67.5103959,5.47267892 C67.6373374,5.15375665 67.6997789,4.8096742 67.6997789,4.44473827 L67.6997789,4.41708474 C67.6997789,4.05192215 67.6373374,3.70874637 67.5103959,3.38098404 C67.3825395,3.0561684 67.2025342,2.77056637 66.9680927,2.52463129 C66.7331938,2.28050955 66.4578108,2.08920152 66.1371406,1.9457205 C65.8166991,1.80563951 65.4676672,1.73333233 65.0905023,1.73333233 C64.7048746,1.73333233 64.353098,1.80110614 64.0365448,1.94050713 C63.7204491,2.08058813 63.4503268,2.27008281 63.2241193,2.51329787 C62.9983693,2.75741961 62.8217948,3.04143496 62.6943959,3.36194391 C62.5676831,3.68290619 62.5027257,4.02834865 62.5027257,4.39464458 L62.5027257,4.41708474 C62.5027257,4.78338068 62.5676831,5.12995648 62.6943959,5.45613213 C62.8217948,5.78253445 63.0015714,6.06745648 63.2366991,6.30863153 C63.4702257,6.55411327 63.7449225,6.74950133 64.0617044,6.89162234 C64.3775714,7.03238334 64.729348,7.10265051 65.1158906,7.10265051" id="Fill-5"></path>
                    <path d="M70.9069385,0.145294367 L74.9020502,0.145294367 C75.8942523,0.145294367 76.6435502,0.399162838 77.1508587,0.903046422 C77.5449491,1.29495588 77.7421087,1.77843931 77.7421087,2.35553675 L77.7421087,2.3809236 C77.7421087,2.62368532 77.7116885,2.83970019 77.6497044,3.02715486 C77.5895502,3.21370285 77.506981,3.38211738 77.4056565,3.53285179 C77.302731,3.68267952 77.1851672,3.81482713 77.0504491,3.93020128 C76.9152736,4.04534877 76.7730076,4.14190945 76.6163321,4.22351003 C77.1142629,4.40892469 77.506981,4.66347316 77.793114,4.98511545 C78.079247,5.30743774 78.2226565,5.7521609 78.2226565,6.32177829 L78.2226565,6.3467118 C78.2226565,6.73816792 78.1455768,7.08021035 77.9927895,7.37170575 C77.8422895,7.6643345 77.625231,7.90981625 77.3432151,8.10497764 C77.0589119,8.3017257 76.7199438,8.44498005 76.3237948,8.54244741 C75.9228427,8.64308813 75.4848374,8.68910179 75.002231,8.68910179 L70.9069385,8.68910179 L70.9069385,0.145294367 Z M74.5031565,3.6006256 C74.9219491,3.6006256 75.2538268,3.52899843 75.5006193,3.38551741 C75.7469544,3.24611642 75.8702363,3.01514144 75.8702363,2.69757918 L75.8702363,2.671739 C75.8702363,2.38953699 75.7634225,2.17057544 75.5491087,2.02188104 C75.3345661,1.86865329 75.0273906,1.7949861 74.6246087,1.7949861 L72.7547948,1.7949861 L72.7547948,3.6006256 L74.5031565,3.6006256 Z M75.0074917,7.04145007 C75.425598,7.04145007 75.7540448,6.96642287 75.9916885,6.81704848 C76.2307044,6.66563407 76.3496406,6.43352575 76.3496406,6.1166435 L76.3496406,6.09080331 C76.3496406,5.80429461 76.2389385,5.58102635 76.0177629,5.41261182 C75.7954438,5.24578397 75.4384065,5.16146337 74.9471087,5.16146337 L72.7547948,5.16146337 L72.7547948,7.04145007 L75.0074917,7.04145007 L75.0074917,7.04145007 Z" id="Fill-6"></path>
                    <polyline id="Fill-7" points="79.4481565 0.145294367 85.937497 0.145294367 85.937497 1.81878627 81.3204863 1.81878627 81.3204863 3.55121192 84.6962151 3.55121192 84.6962151 5.22470382 81.3204863 5.22470382 81.3204863 7.01900991 86.0003959 7.01900991 86.0003959 8.68910179 79.4481565 8.68910179 79.4481565 0.145294367"></polyline>
                    <path d="M25.3134438,14.9861732 L25.3134438,11.6691096 L24.2995129,11.6691096 L24.2995129,15.0204001 C24.2995129,16.6787053 25.193364,17.5917251 26.8182151,17.5917251 C28.4668534,17.5917251 29.3748853,16.6635185 29.3748853,14.9782398 L29.3748853,11.6691096 L28.3627842,11.6691096 L28.3627842,15.0310536 C28.3627842,16.0880077 27.8069863,16.693212 26.8388002,16.693212 C25.8696991,16.693212 25.3134438,16.0710076 25.3134438,14.9861732" id="Fill-8"></path>
                    <polyline id="Fill-9" points="31.7010023 11.6693363 31.7010023 17.4951644 32.6970927 17.4951644 32.6970927 13.2170273 35.9852204 17.4951644 36.8841034 17.4951644 36.8841034 11.6693363 35.8884704 11.6693363 35.8884704 15.8209925 32.6970927 11.6693363 31.7010023 11.6693363"></polyline>
                    <polygon id="Fill-10" points="39.6823055 17.4944844 40.6946353 17.4944844 40.6946353 11.6686563 39.6823055 11.6686563"></polygon>
                    <polyline id="Fill-11" points="43.9704119 11.6693363 42.8460076 11.6693363 45.2235874 17.4951644 46.1931459 17.4951644 48.5709544 11.6693363 47.4801725 11.6693363 45.7244917 16.3538896 43.9704119 11.6693363"></polyline>
                    <polyline id="Fill-12" points="51.4645342 14.9866266 54.4050023 14.9866266 54.4050023 14.1309538 51.4645342 14.1309538 51.4645342 12.5227424 54.8057257 12.5227424 54.8057257 11.668883 50.4608959 11.668883 50.4608959 17.4949377 54.8496406 17.4949377 54.8496406 16.6390383 51.4645342 16.6390383 51.4645342 14.9866266"></polyline>
                    <path d="M58.0876778,14.6690643 L58.0876778,12.5404225 L59.6301885,12.5404225 C60.4160821,12.5404225 60.8858799,12.937092 60.8858799,13.6007767 C60.8858799,14.2567547 60.4035023,14.6690643 59.6562629,14.6690643 L58.0876778,14.6690643 Z M60.698098,15.2967088 C61.2550395,15.0938407 61.9167363,14.626224 61.9167363,13.5481897 C61.9167363,12.9996524 61.7509119,12.5549293 61.4361885,12.2425804 C61.0574225,11.8676711 60.4718906,11.668883 59.7443214,11.668883 L57.0721459,11.668883 L57.0721459,17.4949377 L58.0876778,17.4949377 L58.0876778,15.5161237 L59.4417204,15.5161237 L60.775864,17.4949377 L61.9460129,17.4949377 L60.4824119,15.3753627 L60.698098,15.2967088 L60.698098,15.2967088 Z" id="Fill-13"></path>
                    <path d="M66.5278002,14.1429672 C65.5294225,13.8890988 65.0497895,13.7401777 65.0497895,13.1596802 C65.0497895,12.7852243 65.3530768,12.4234617 66.0307842,12.4234617 C66.5191087,12.4234617 67.0355661,12.6011696 67.6050874,12.9674655 L68.1206299,12.2269403 C67.5234331,11.7971772 66.8278853,11.5795757 66.0493108,11.5795757 C64.8512576,11.5795757 64.0461512,12.2570872 64.0461512,13.2662143 C64.0461512,14.3331419 64.6412895,14.6620376 65.9754331,15.00204 C66.9385874,15.2452551 67.3674438,15.4406431 67.3674438,15.9583535 C67.3674438,16.3432362 67.0847417,16.7365057 66.2901565,16.7365057 C65.6504172,16.7365057 65.0628268,16.5193575 64.452364,16.0542342 L63.8663746,16.7510125 C64.5353906,17.2877629 65.3796087,17.5810717 66.2629385,17.5810717 C67.5639172,17.5810717 68.3717682,16.915347 68.3717682,15.8434327 C68.3717682,14.9460529 67.8724651,14.490223 66.5278002,14.1429672" id="Fill-14"></path>
                    <polygon id="Fill-15" points="70.5961034 17.4944844 71.6082044 17.4944844 71.6082044 11.6686563 70.5961034 11.6686563"></polygon>
                    <polyline id="Fill-16" points="75.7666246 17.4949377 76.7789544 17.4949377 76.7789544 12.5662627 78.6771299 12.5662627 78.6771299 11.668883 73.8682204 11.668883 73.8682204 12.5662627 75.7666246 12.5662627 75.7666246 17.4949377"></polyline>
                    <polyline id="Fill-17" points="84.7931938 11.6693363 83.1758906 14.3159151 81.5874065 11.6693363 80.4126831 11.6693363 82.6608055 15.1836013 82.6608055 17.4951644 83.6747363 17.4951644 83.6747363 15.1548144 85.9235448 11.6693363 84.7931938 11.6693363"></polyline>
                    <path d="M19.0850768,4.57235251 C19.0246938,4.70858015 18.8579544,4.81171422 18.8579544,4.81171422 C19.2156778,4.79992747 19.0850768,4.57235251 19.0850768,4.57235251" id="Fill-18"></path>
                    <path d="M20.1122736,4.89059478 C20.0617257,4.40393798 19.7975502,4.36517771 19.5393214,4.26113697 C19.2810927,4.15664289 18.8165555,4.02562863 18.644098,3.92453457 C18.4707257,3.8243472 18.2943799,3.79012029 18.0889863,3.75657338 C17.8826778,3.72370648 17.3634757,3.75657338 17.1274331,3.71962645 C16.8904757,3.68358619 16.5215448,3.61263902 16.4437789,3.66590607 C16.3653268,3.71962645 16.3618959,3.9986551 15.7797948,4.17636303 C15.4202417,4.28607048 14.9655395,4.39600459 14.6265714,4.49392529 C14.6190236,4.32551076 14.6437257,3.80938709 15.0890502,3.06999516 C15.6370714,2.15901535 15.7905448,1.85505319 15.5510714,1.61614483 C15.285981,1.35184961 14.200231,1.92350701 14.200231,1.92350701 C14.200231,1.92350701 14.2235608,1.81901294 14.2359119,1.66147848 C14.5540661,1.47606383 15.7587523,0.811019101 16.2498214,1.08392771 C16.8193427,1.39854328 16.1219651,2.27393617 16.0572363,2.35485675 C15.9929651,2.43577732 15.2175927,3.58611883 15.0625182,4.05192215 L15.3877629,3.96442819 C15.3877629,3.96442819 16.1084704,2.81658003 16.356864,2.51284454 C16.6050289,2.20820237 17.1830129,1.33666284 16.7219065,0.951100097 C16.268348,0.572564072 15.5137895,0.715591755 14.2448321,1.52797087 C14.2585555,1.1111279 14.1750714,0.485523453 13.5957151,0.26860191 C12.6046565,-0.101774057 9.36822037,0.150734405 5.69172037,3.06274178 C5.69172037,3.06274178 4.26082676,4.06257556 2.88802888,5.47222558 C1.58796505,6.80866175 0.374587395,8.19927164 0.762273565,8.40372643 C1.1876991,8.62812802 2.28808739,7.40865268 2.41823101,7.28285179 C2.41823101,7.28285179 3.57785867,7.35198561 5.0254491,6.12412355 C5.0254491,6.12412355 5.81866186,6.62528711 6.91905016,6.33061835 C6.91905016,6.33061835 6.48287463,7.4013993 7.77127356,7.31322534 C7.77127356,7.31322534 7.66240122,7.83433571 8.09834803,7.74548175 C8.09834803,7.74548175 5.55174165,9.22290559 5.59611399,9.28115933 C5.64002888,9.34054642 6.89983739,8.78928917 7.51693314,8.47943363 C7.88815122,8.29333897 8.11115654,8.11563104 8.40712463,8.06644403 C8.70240654,8.01703034 9.75773633,7.96829666 11.2380342,7.16657096 C12.7181034,6.36461859 13.1913321,5.32874456 13.2610927,4.58549927 C13.2610927,4.58549927 12.8832417,4.92346168 12.7896938,4.91235493 C12.6961459,4.90102152 12.8496193,4.51840546 12.8880448,4.26975036 C12.9246406,4.02041526 13.2247257,3.06206177 12.9472842,3.17720926 C12.6698427,3.29235675 11.7942895,4.15142952 11.4777363,3.60085227 C11.2453534,3.19556939 11.8857789,2.43373731 11.8857789,2.43373731 C11.8857789,2.43373731 9.88536399,3.53693182 9.51643314,2.96935445 C9.18981612,2.46683088 9.74126825,2.07356141 9.74126825,2.07356141 C9.74126825,2.07356141 7.5331725,2.93059417 5.27155548,4.44587162 C3.01016718,5.9622824 1.64697569,7.82436231 1.20576825,7.8980295 C0.765475693,7.97237669 4.75784271,3.24815643 9.06287463,1.54587766 C11.3885342,0.625604449 12.9479704,0.506603603 13.5758161,0.794698985 C13.9433746,0.96379352 13.8990023,1.42891683 13.8990023,1.5420243 C13.8990023,1.5420243 13.5744438,4.59071265 14.1174331,5.35299807 C14.1174331,5.35299807 14.5812842,5.09776958 14.9696565,4.93003506 C14.9696565,4.93003506 14.7871353,4.93003506 14.8772523,4.76502055 C14.927114,4.67276656 15.075098,4.62539289 15.2880395,4.55965909 C15.576231,4.47035179 16.0727895,4.43227152 16.3360502,4.24073682 C16.5990821,4.04920213 16.5757523,3.97349492 16.7045236,3.92748126 C16.7045236,3.92748126 17.2436246,4.02041526 17.5242682,3.99162838 C17.8058268,3.96261485 18.0684012,3.9329213 18.2323959,3.98550834 C18.3963906,4.03832205 18.9750608,4.33888419 19.3211193,4.40325798 C19.6662629,4.46763177 19.7046885,4.49324529 19.8181353,4.6924867 C19.9530821,4.93071506 19.9553693,5.17098344 19.9553693,5.17098344 C19.9523959,5.16826342 19.9475927,5.1662234 19.9430182,5.16350338 C19.7444863,5.04246252 19.2140768,5.05855597 19.2140768,5.05855597 C19.3455927,5.07283607 19.4764225,5.12678312 19.2838374,5.17347679 C19.0907948,5.22085046 18.5233321,5.39787838 18.5233321,5.39787838 C18.6717736,5.19795696 19.0077682,5.06626269 19.0208055,5.06036932 C19.033614,5.05379594 18.3408108,5.06875604 18.3408108,5.06875604 C18.4972576,4.96312863 18.5729651,4.7017801 18.6004119,4.58549927 C18.6626246,4.57620588 18.7216353,4.55897909 18.7795023,4.53948561 C18.9686565,4.47556516 18.7589172,4.42751148 18.3552204,4.41187137 C17.9524385,4.39600459 17.6290236,4.33684417 17.6290236,4.33684417 L17.5274704,4.51296543 C17.5668108,4.49143194 17.7413268,4.43929824 17.894114,4.45969838 C17.9012044,4.53608559 17.9384863,4.71311352 18.1429651,4.73351366 C18.2271353,4.74258039 18.2943799,4.72694028 18.3465289,4.7017801 C18.2850023,4.83868774 18.1317576,5.06354267 17.7991938,4.99780887 C17.5702417,4.95247522 17.4519917,4.72875363 17.4519917,4.72875363 C17.4519917,4.72875363 17.2090874,5.22153046 16.9801353,5.34257132 C16.7491246,5.46429219 15.5609065,6.00240268 15.0718959,6.59831359 C14.5833427,7.19467783 14.3886991,7.39618593 14.0117629,7.49659998 C13.6348268,7.59746736 13.5909119,7.6072141 13.5431087,7.65980114 C13.4939331,7.71238818 13.0936672,8.34909937 11.8114438,9.02479751 C11.4020289,9.24126572 11.2320874,9.23446567 11.1630129,9.16555851 C11.0502523,9.05245104 11.1954917,8.87156975 11.1165821,8.87542311 C10.9770608,8.8833565 10.8862576,8.92937016 10.5802257,9.05766441 C10.1628055,9.23378566 9.90251825,9.38338673 9.57933208,9.41013358 C9.28405016,9.43393375 8.99654484,9.34439978 8.97733208,8.91486339 C8.97733208,8.91486339 8.96269378,8.90557 8.75501293,8.97991719 C8.54641718,9.05313104 7.34470442,9.60098827 6.9096725,9.60620164 C6.67477356,9.60892166 7.10683208,9.07149118 7.10683208,9.07149118 C7.10683208,9.07149118 5.96733208,9.74424263 5.71962463,9.85871011 C5.47351825,9.97317759 4.76927888,10.2750997 5.0499225,9.5536146 C5.0499225,9.5536146 3.42575761,10.5627418 0.972470373,11.3143738 C0.182002288,11.5566822 -0.00646579678,11.4506014 1.50293731e-14,11.6432695 C0.0029118628,11.7341634 0.0891405862,11.7677103 0.207848033,11.7754171 C0.378018246,11.7874305 0.68267782,11.7908305 0.965379948,11.7511636 C1.49235867,11.6781764 2.47586931,11.4716816 3.21007144,11.2382132 C4.33836399,10.880984 4.67504484,10.496328 5.45682144,10.7112095 C6.45176825,10.9834381 6.94626825,10.5763419 6.94626825,10.5763419 C6.94626825,10.5763419 7.0963108,10.8435838 7.70883208,10.8329304 C7.70883208,10.8329304 8.27034803,11.25408 9.29182676,11.0929189 C9.29182676,11.0929189 9.68751825,11.2980537 10.2968374,11.2908003 C10.3348055,11.5111219 10.3890129,11.8862579 10.3670555,12.1689132 C10.3300023,12.66101 10.3645395,12.801091 10.644497,12.5583293 C10.644497,12.5583293 10.9438959,13.4076553 10.9605927,13.6193635 C10.9770608,13.8310717 10.9738587,13.963446 11.0873055,13.9763661 C11.2007523,13.9897395 11.2798906,13.9763661 11.2798906,13.9763661 C11.2798906,13.9763661 11.3574278,14.1685808 11.630981,14.244288 C11.630981,14.244288 11.6547682,14.3256619 11.2252257,14.4936231 C11.0111406,14.576357 10.8132948,14.7771851 10.8896885,14.8728391 C10.8896885,14.8728391 11.0674065,14.8755591 11.2593055,14.8637724 C11.2593055,14.8637724 11.5099863,14.626224 11.8148746,14.7935052 C11.9580555,14.8721591 11.9827576,14.9886666 11.9608002,15.0795606 C11.9527948,15.1144675 11.9370129,15.1518677 11.9091087,15.1901747 C11.8951565,15.2112548 11.8626778,15.2531885 11.8274544,15.3137089 C11.7750768,15.4025629 11.7165236,15.5197504 11.738481,15.5612307 C11.7750768,15.6301378 11.9255768,15.8348193 11.5099863,15.8867263 C11.5099863,15.8867263 11.5305714,15.9681002 11.6595714,15.9615268 C11.7874278,15.9545001 12.1076406,15.753672 12.1227363,15.651218 C12.1227363,15.651218 12.2752948,15.4814434 12.3729597,15.2395884 C12.4692523,14.99728 12.4813746,14.9591997 12.5122523,14.99728 C12.5435874,15.0360403 12.656348,15.3019221 12.568747,15.5070569 C12.5010448,15.6668581 12.4452363,15.6985916 12.4964704,15.7702188 C12.5031034,15.7786055 12.5342097,15.7996857 12.5854438,15.8352726 C12.619981,15.8597528 12.6238693,15.9200465 12.5236885,16.0195539 C12.3496299,16.1938618 12.8244597,15.9864603 12.8914757,15.8248459 C12.8914757,15.8248459 13.0408321,15.652578 12.9795342,15 C12.9795342,15 12.9683268,14.9301862 13.0538693,14.9823199 C13.1389544,15.0335469 13.269098,15.1724946 13.2729863,15.2926287 C13.2771034,15.4136696 13.2192363,15.5233771 13.3020342,15.5612307 C13.3852895,15.5990843 13.3878055,15.7287385 13.3566991,15.8076191 C13.3246778,15.8853663 13.1414704,15.9105265 13.1846991,15.9234466 C13.2279278,15.9372733 13.5616353,15.9390867 13.6201885,15.5523906 C13.6791991,15.1656945 13.5131459,14.7250514 13.060731,14.4514628 C12.6085448,14.1790075 12.461247,14.0414199 12.3903427,12.3989815 C12.3663268,11.8275508 12.5342097,11.1600127 12.6556619,10.7125695 L12.656348,10.7125695 C12.8070768,10.1681123 12.9916565,9.86415015 13.0008055,9.92512391 C13.0175023,10.0339247 12.8688321,10.4469143 12.8580821,10.6534091 C12.8580821,10.6534091 14.1901672,9.96139084 14.5851725,9.63045515 C14.9854385,9.29589277 15.1805395,9.04066429 15.1944917,9.02003748 C15.2084438,8.99963733 15.539864,8.67799504 15.6684065,7.81960227 L16.1761725,6.83314192 C16.1761725,6.83314192 16.3795076,7.16589096 16.5485342,6.96460953 C16.7177895,6.76264809 17.0695661,6.19552406 17.1235448,6.18917735 C17.1235448,6.18917735 17.2063427,6.44576584 17.3277948,6.37209865 C17.4499331,6.29820479 17.496364,6.02144282 17.8083427,5.87320176 C18.1189491,5.72609405 18.6612523,5.56493291 18.6612523,5.56493291 C18.6612523,5.56493291 19.8883534,5.26369076 19.9318108,5.35435808 C19.9741246,5.44593206 19.9782417,5.65832024 19.9782417,5.65832024 C19.9782417,5.65832024 20.1646512,5.37747824 20.1122736,4.89059478 M12.5586831,14.2204878 C12.5586831,14.2204878 12.6245555,14.3573954 12.7606459,14.4408094 C12.8594544,14.5015565 13.1263746,14.6343841 13.2432523,14.7547449 C13.2876246,14.8000786 13.3354278,14.8698924 13.3102682,14.8868925 C13.2848799,14.9045727 13.2212948,14.8814525 13.0872629,14.7583716 C12.9550608,14.6375574 12.8754651,14.7066912 12.8654012,14.7855718 C12.8569385,14.8513056 12.8926193,15.0750272 12.8702044,15.2196416 C12.8475608,15.3649359 12.7739119,15.3866961 12.7798587,15.2234949 C12.7860342,15.0616538 12.6947736,14.6874244 12.5335236,14.7026112 C12.4088693,14.714398 12.3443693,14.8268254 12.3086885,14.9018526 C12.2702629,14.9809599 12.2117097,15.0578004 12.228864,14.9920666 C12.228864,14.9920666 12.246247,14.8275054 12.1584172,14.6420908 C12.0710448,14.4559961 12.0442842,14.436956 11.9443321,14.4224492 C11.8446087,14.4086225 11.8345448,14.3231685 12.007231,14.2485947 C12.1824331,14.1737941 12.2629438,14.1329938 12.5586831,14.2204878" id="Fill-19"></path>
                    <path d="M5.45339059,10.967798 C5.12014059,10.8429038 4.63639059,10.9639446 4.15835867,11.1776928 C3.67986931,11.392801 1.38188527,12.1557664 0.0685554798,12.0750725 C0.0685554798,12.0750725 0.263656544,12.3695146 1.06601825,12.4953155 C1.06601825,12.4953155 0.999688459,12.939132 1.79084271,12.7695841 C2.58016718,12.5991296 5.41816718,11.3384006 6.01422037,11.0020249 C6.01422037,11.0020249 5.78664059,11.0929189 5.45339059,10.967798" id="Fill-20"></path>
                    <path d="M7.50000761,11.0718387 C7.48193846,11.0718387 7.06977888,11.1074257 6.78982144,10.8528772 L3.97675229,12.2940341 C3.97675229,12.2940341 2.6917842,12.8813316 2.93080016,13.032746 C2.93080016,13.032746 3.33243846,13.259641 4.23109271,12.9137452 C5.13043314,12.5678494 7.65805548,11.1758795 7.65805548,11.1758795 C7.65805548,11.1758795 7.5077842,11.0718387 7.50000761,11.0718387" id="Fill-21"></path>
                    <path d="M8.69440122,11.3284272 C8.69440122,11.3284272 8.3325608,11.3592541 8.05237463,11.2171331 C8.05237463,11.2171331 6.53502356,12.1743532 6.24774697,12.328261 C5.96115654,12.4821688 5.50897037,12.6641834 6.00827356,12.7432906 C6.50780548,12.8228512 7.04073101,12.7709441 7.8918108,12.043339 C8.65300229,11.392801 8.69440122,11.3284272 8.69440122,11.3284272" id="Fill-22"></path>
                    <path d="M13.5168055,10.6062621 C13.2167204,10.7635699 12.8450448,10.9285844 12.8450448,10.9285844 C12.8450448,10.9285844 12.7091831,11.4560415 12.7444065,12.4236883 C12.7894651,13.6760306 12.9262417,14.0273664 13.3377151,14.2628748 C13.9243906,14.5976638 14.0305182,15.1074408 14.0266299,15.2679219 C14.0234278,15.4290831 14.0071885,15.4705633 14.0591087,15.5276838 C14.1110289,15.5870708 14.107598,15.6197111 14.0446991,15.7289652 C13.9827151,15.8388993 13.8068268,15.8656462 13.8793321,15.8756196 C13.9522948,15.885593 14.1554012,15.8926197 14.2523799,15.6704848 C14.3493587,15.4481232 14.4628055,15.3284423 14.2736512,14.8533456 C14.2736512,14.8533456 14.4932257,14.8179854 14.5783108,15.2250816 C14.6320608,15.4857501 14.5497204,15.5816308 14.7594597,15.6564313 C14.7594597,15.6564313 14.7912523,15.7500453 14.6718587,15.8817396 C14.578997,15.9835137 14.7089119,15.9579001 14.7898799,15.9177799 C14.9287151,15.8513661 15.0515395,15.6611914 15.0316406,15.4388298 C15.0121991,15.2271216 14.8861725,14.954893 14.7953693,14.8213854 C14.7953693,14.8213854 14.9506725,14.8553856 15.0348427,15.0068 C15.1199278,15.1573078 15.1078055,15.237775 15.318231,15.2250816 C15.318231,15.2250816 15.4090342,15.2948954 15.4158959,15.4388298 C15.4225289,15.5829908 15.2420661,15.6854449 15.3010768,15.6756981 C15.3600874,15.6650447 15.758981,15.5177103 15.4568374,15.0231202 C15.4568374,15.0231202 15.4065182,14.7869318 15.1761938,14.665891 C14.9458693,14.5455301 14.6565342,14.2121011 14.1254385,14.1200737 C14.1254385,14.1200737 13.8827629,13.8648453 13.8342736,13.7154709 C13.8342736,13.7154709 13.8646938,13.6490571 13.8772736,13.5926167 C13.8905395,13.5345896 13.5328161,11.7303101 14.3983055,10.1134853 C14.3983055,10.1134853 13.8175768,10.449181 13.5168055,10.6062621 M14.0657417,14.244288 C14.3637682,14.2365812 15.0309544,14.6831177 15.0188321,14.7363848 C15.0078534,14.7903318 14.7706672,14.6745044 14.7011353,14.6461708 C14.6306885,14.6178373 14.5323374,14.6087706 14.6114757,14.7180247 C14.6917576,14.8270521 14.7946831,15.0850006 14.7898799,15.1382676 C14.7853055,15.1917614 14.7354438,15.147561 14.7354438,15.147561 C14.6471565,14.8948259 14.4202629,14.6831177 14.292864,14.6346107 C14.1668374,14.5851971 14.1288693,14.6160239 14.1217789,14.7017045 C14.1149172,14.7876118 14.1595182,14.9567064 14.0611672,14.7153046 C13.9628161,14.4741296 13.7306619,14.2739815 13.6602151,14.2279678 C13.5904544,14.1819542 13.6231619,14.1325405 13.6231619,14.1325405 C13.6549544,14.0996736 13.7107629,14.0944602 13.7686299,14.0996736 C13.9150129,14.1121404 14.0657417,14.244288 14.0657417,14.244288" id="Fill-23"></path>
                    <path d="M7.99267782,15.4567366 L8.63173101,15.7137784 C8.57340654,16.0827944 8.92175229,16.3169427 8.92175229,16.3169427 C8.88401293,16.4511303 8.76461931,16.5572111 8.69348633,16.6091181 C8.65345974,16.6374516 8.62303952,16.643345 8.63173101,16.6544518 C8.63630548,16.6603451 8.66695442,16.6499184 8.69005548,16.641305 C9.3000608,16.4085167 9.35838527,15.8520461 9.33185335,15.46467 C9.30669378,15.097014 9.04457676,14.8916526 9.04457676,14.8916526 C9.03588527,14.8950526 10.0708587,15.0337736 10.4436778,14.9580664 C10.818098,14.8843992 10.4411619,14.8667191 10.4411619,14.8667191 C9.66510335,14.8744258 8.79961399,14.5668369 8.3609225,14.7087313 C7.77012995,14.899586 7.7442842,15.46671 7.73307676,15.5625907 C7.66400229,16.0997945 7.96271505,16.3933299 8.0999491,16.497144 C8.12602356,16.5175441 8.1605608,16.5458777 8.16582144,16.5420243 C8.17039591,16.5372643 8.14111931,16.4953306 8.1312842,16.4774238 C7.81130016,15.886953 7.99267782,15.4567366 7.99267782,15.4567366" id="Fill-24"></path>
                    <path d="M18.6797789,16.2457689 C18.0830395,16.2942759 17.4153959,16.1628083 17.4080768,16.1655283 C17.399614,16.1687016 17.3170448,16.2208353 17.3170448,16.2208353 C17.7829544,16.4266501 18.3042151,16.3872099 18.4242948,16.40761 C18.5450608,16.4280102 18.4009651,16.4778772 18.4009651,16.4778772 C17.7550502,17.0035209 16.6818799,16.8457598 15.1041459,16.8457598 C13.527098,16.8457598 11.8729704,17.2884429 11.3302097,17.3784302 C11.1117789,17.4144705 10.9299438,17.2256558 10.7771565,17.1476819 C10.5674172,17.0409212 10.4155448,16.9901475 10.4155448,16.9901475 C12.2700342,16.6007314 13.3267363,16.4869439 15.309997,16.352983 C16.5053055,16.2711557 17.5169491,16.4384369 17.6429757,15.5419639 C17.6816299,15.2695086 17.6203321,15.049187 17.5155768,14.8741991 C17.3271087,14.5579969 17.0178746,14.3941157 16.8845289,14.3360886 C16.847247,14.3204485 16.7596459,14.3238485 16.7349438,14.3315552 C16.1084704,14.5407701 15.4678161,14.5933571 15.3484225,14.6083172 C15.2244544,14.6237307 15.2928427,14.6597709 15.2928427,14.6597709 C15.9616299,14.7051046 16.5014172,14.5493835 16.6754757,14.4899964 C16.7136725,14.4768496 16.7575874,14.4723162 16.7960129,14.4836497 C16.9234119,14.5217299 17.2193799,14.6525175 17.3710236,15.0650538 C17.6285661,15.7674988 17.0748268,15.9293399 16.6022842,15.9535934 C16.1297417,15.9771669 14.1318427,16.1863818 13.3759119,16.2258221 C12.6190661,16.266169 10.6220821,16.5390776 9.89725761,16.6462917 C9.34031612,16.7306123 8.62944378,16.7791193 8.62944378,16.7791193 C8.4361725,16.7822927 8.75226825,16.8700133 9.51071505,16.9831208 C10.268247,17.0975882 10.4679225,17.389537 10.7785289,17.5856051 C10.9166778,17.673099 11.1829119,17.674459 11.4342789,17.6481655 C11.7478587,17.6171119 12.4134438,17.4314706 12.8381831,17.3573501 C13.6677629,17.2127357 15.0929385,17.0606413 17.0709385,17.1218418 C18.1621778,17.1553887 18.545747,16.8457598 18.9142204,16.3935566 C19.0885076,16.1784484 18.6797789,16.2457689 18.6797789,16.2457689" id="Fill-25"></path>
                </g>
            </g>
        </g>
    </g>
</svg>